<mxfile host="app.diagrams.net" agent="Mozilla/5.0 (Windows NT 10.0; Win64; x64) AppleWebKit/537.36 (KHTML, like Gecko) Chrome/135.0.0.0 Safari/537.36 Edg/135.0.0.0" version="26.2.10">
  <diagram id="R2lEEEUBdFMjLlhIrx00" name="Page-1">
    <mxGraphModel dx="1212" dy="712" grid="1" gridSize="10" guides="1" tooltips="1" connect="1" arrows="1" fold="1" page="1" pageScale="1" pageWidth="850" pageHeight="1100" math="0" shadow="0" extFonts="Permanent Marker^https://fonts.googleapis.com/css?family=Permanent+Marker">
      <root>
        <mxCell id="0" />
        <mxCell id="1" parent="0" />
        <mxCell id="9PdDamgh7AAQmpJ13Fz--106" value="" style="rounded=0;whiteSpace=wrap;html=1;" vertex="1" parent="1">
          <mxGeometry x="230" y="15" width="160" height="325" as="geometry" />
        </mxCell>
        <mxCell id="9PdDamgh7AAQmpJ13Fz--29" value="用户" style="rounded=1;arcSize=10;whiteSpace=wrap;html=1;align=center;" vertex="1" parent="1">
          <mxGeometry x="260" y="250" width="100" height="40" as="geometry" />
        </mxCell>
        <mxCell id="9PdDamgh7AAQmpJ13Fz--31" value="&lt;u&gt;uid&lt;/u&gt;" style="ellipse;whiteSpace=wrap;html=1;align=center;" vertex="1" parent="1">
          <mxGeometry x="290" y="300" width="40" height="30" as="geometry" />
        </mxCell>
        <mxCell id="9PdDamgh7AAQmpJ13Fz--34" value="" style="endArrow=none;html=1;rounded=0;" edge="1" parent="1" source="9PdDamgh7AAQmpJ13Fz--31" target="9PdDamgh7AAQmpJ13Fz--29">
          <mxGeometry relative="1" as="geometry">
            <mxPoint x="310" y="220" as="sourcePoint" />
            <mxPoint x="470" y="220" as="targetPoint" />
          </mxGeometry>
        </mxCell>
        <mxCell id="9PdDamgh7AAQmpJ13Fz--36" value="email" style="ellipse;whiteSpace=wrap;html=1;align=center;" vertex="1" parent="1">
          <mxGeometry x="350" y="300" width="40" height="30" as="geometry" />
        </mxCell>
        <mxCell id="9PdDamgh7AAQmpJ13Fz--39" value="" style="endArrow=none;html=1;rounded=0;" edge="1" parent="1" source="9PdDamgh7AAQmpJ13Fz--36" target="9PdDamgh7AAQmpJ13Fz--29">
          <mxGeometry relative="1" as="geometry">
            <mxPoint x="280" y="270" as="sourcePoint" />
            <mxPoint x="440" y="270" as="targetPoint" />
          </mxGeometry>
        </mxCell>
        <mxCell id="9PdDamgh7AAQmpJ13Fz--40" value="name" style="ellipse;whiteSpace=wrap;html=1;align=center;" vertex="1" parent="1">
          <mxGeometry x="350" y="210" width="40" height="30" as="geometry" />
        </mxCell>
        <mxCell id="9PdDamgh7AAQmpJ13Fz--41" value="" style="endArrow=none;html=1;rounded=0;" edge="1" parent="1" source="9PdDamgh7AAQmpJ13Fz--40" target="9PdDamgh7AAQmpJ13Fz--29">
          <mxGeometry relative="1" as="geometry">
            <mxPoint x="280" y="270" as="sourcePoint" />
            <mxPoint x="440" y="270" as="targetPoint" />
          </mxGeometry>
        </mxCell>
        <mxCell id="9PdDamgh7AAQmpJ13Fz--42" value="题目" style="shape=ext;margin=3;double=1;whiteSpace=wrap;html=1;align=center;" vertex="1" parent="1">
          <mxGeometry x="260" y="80" width="100" height="40" as="geometry" />
        </mxCell>
        <mxCell id="9PdDamgh7AAQmpJ13Fz--43" value="团队" style="whiteSpace=wrap;html=1;align=center;" vertex="1" parent="1">
          <mxGeometry x="30" y="250" width="100" height="40" as="geometry" />
        </mxCell>
        <mxCell id="9PdDamgh7AAQmpJ13Fz--45" value="描述" style="ellipse;whiteSpace=wrap;html=1;align=center;" vertex="1" parent="1">
          <mxGeometry x="240" y="40" width="40" height="30" as="geometry" />
        </mxCell>
        <mxCell id="9PdDamgh7AAQmpJ13Fz--46" value="测试数据" style="ellipse;whiteSpace=wrap;html=1;align=center;" vertex="1" parent="1">
          <mxGeometry x="280" y="40" width="50" height="30" as="geometry" />
        </mxCell>
        <mxCell id="9PdDamgh7AAQmpJ13Fz--48" value="" style="endArrow=none;html=1;rounded=0;" edge="1" parent="1" source="9PdDamgh7AAQmpJ13Fz--45" target="9PdDamgh7AAQmpJ13Fz--42">
          <mxGeometry relative="1" as="geometry">
            <mxPoint x="220" y="160" as="sourcePoint" />
            <mxPoint x="380" y="160" as="targetPoint" />
          </mxGeometry>
        </mxCell>
        <mxCell id="9PdDamgh7AAQmpJ13Fz--49" value="" style="endArrow=none;html=1;rounded=0;" edge="1" parent="1" source="9PdDamgh7AAQmpJ13Fz--46" target="9PdDamgh7AAQmpJ13Fz--42">
          <mxGeometry relative="1" as="geometry">
            <mxPoint x="220" y="160" as="sourcePoint" />
            <mxPoint x="380" y="160" as="targetPoint" />
          </mxGeometry>
        </mxCell>
        <mxCell id="9PdDamgh7AAQmpJ13Fz--50" value="管理" style="shape=rhombus;perimeter=rhombusPerimeter;whiteSpace=wrap;html=1;align=center;" vertex="1" parent="1">
          <mxGeometry x="150" y="150" width="70" height="60" as="geometry" />
        </mxCell>
        <mxCell id="9PdDamgh7AAQmpJ13Fz--52" value="提交" style="shape=rhombus;perimeter=rhombusPerimeter;whiteSpace=wrap;html=1;align=center;" vertex="1" parent="1">
          <mxGeometry x="275" y="150" width="70" height="60" as="geometry" />
        </mxCell>
        <mxCell id="9PdDamgh7AAQmpJ13Fz--56" value="" style="endArrow=none;html=1;rounded=0;exitX=0.25;exitY=0;exitDx=0;exitDy=0;entryX=0.5;entryY=1;entryDx=0;entryDy=0;" edge="1" parent="1" source="9PdDamgh7AAQmpJ13Fz--29" target="9PdDamgh7AAQmpJ13Fz--50">
          <mxGeometry relative="1" as="geometry">
            <mxPoint x="130" y="90" as="sourcePoint" />
            <mxPoint x="350" y="170" as="targetPoint" />
            <Array as="points">
              <mxPoint x="250" y="210" />
            </Array>
          </mxGeometry>
        </mxCell>
        <mxCell id="9PdDamgh7AAQmpJ13Fz--62" value="" style="endArrow=none;html=1;rounded=0;exitX=0.5;exitY=0;exitDx=0;exitDy=0;entryX=0.5;entryY=1;entryDx=0;entryDy=0;" edge="1" parent="1" source="9PdDamgh7AAQmpJ13Fz--29" target="9PdDamgh7AAQmpJ13Fz--52">
          <mxGeometry relative="1" as="geometry">
            <mxPoint x="110" y="180" as="sourcePoint" />
            <mxPoint x="270" y="180" as="targetPoint" />
          </mxGeometry>
        </mxCell>
        <mxCell id="9PdDamgh7AAQmpJ13Fz--63" value="" style="endArrow=none;html=1;rounded=0;exitX=0.5;exitY=0;exitDx=0;exitDy=0;entryX=0.5;entryY=1;entryDx=0;entryDy=0;" edge="1" parent="1" source="9PdDamgh7AAQmpJ13Fz--52" target="9PdDamgh7AAQmpJ13Fz--42">
          <mxGeometry relative="1" as="geometry">
            <mxPoint x="110" y="180" as="sourcePoint" />
            <mxPoint x="330" y="130" as="targetPoint" />
          </mxGeometry>
        </mxCell>
        <mxCell id="9PdDamgh7AAQmpJ13Fz--64" value="" style="endArrow=none;html=1;rounded=0;exitX=0.5;exitY=0;exitDx=0;exitDy=0;entryX=0.25;entryY=1;entryDx=0;entryDy=0;" edge="1" parent="1" source="9PdDamgh7AAQmpJ13Fz--50" target="9PdDamgh7AAQmpJ13Fz--42">
          <mxGeometry relative="1" as="geometry">
            <mxPoint x="110" y="180" as="sourcePoint" />
            <mxPoint x="270" y="118" as="targetPoint" />
            <Array as="points">
              <mxPoint x="185" y="130" />
              <mxPoint x="270" y="130" />
            </Array>
          </mxGeometry>
        </mxCell>
        <mxCell id="9PdDamgh7AAQmpJ13Fz--65" value="成员" style="shape=rhombus;perimeter=rhombusPerimeter;whiteSpace=wrap;html=1;align=center;" vertex="1" parent="1">
          <mxGeometry x="150" y="220" width="70" height="60" as="geometry" />
        </mxCell>
        <mxCell id="9PdDamgh7AAQmpJ13Fz--66" value="管理员" style="shape=rhombus;perimeter=rhombusPerimeter;whiteSpace=wrap;html=1;align=center;" vertex="1" parent="1">
          <mxGeometry x="150" y="285" width="70" height="60" as="geometry" />
        </mxCell>
        <mxCell id="9PdDamgh7AAQmpJ13Fz--70" value="" style="endArrow=none;html=1;rounded=0;exitX=0.343;exitY=0.972;exitDx=0;exitDy=0;entryX=0.75;entryY=0;entryDx=0;entryDy=0;exitPerimeter=0;" edge="1" parent="1" source="9PdDamgh7AAQmpJ13Fz--85" target="9PdDamgh7AAQmpJ13Fz--42">
          <mxGeometry relative="1" as="geometry">
            <mxPoint x="355" y="70.00000000000006" as="sourcePoint" />
            <mxPoint x="505" y="220" as="targetPoint" />
          </mxGeometry>
        </mxCell>
        <mxCell id="9PdDamgh7AAQmpJ13Fz--71" value="" style="endArrow=none;html=1;rounded=0;exitX=0;exitY=0.25;exitDx=0;exitDy=0;entryX=1;entryY=0.5;entryDx=0;entryDy=0;" edge="1" parent="1" source="9PdDamgh7AAQmpJ13Fz--29" target="9PdDamgh7AAQmpJ13Fz--65">
          <mxGeometry relative="1" as="geometry">
            <mxPoint x="110" y="180" as="sourcePoint" />
            <mxPoint x="220" y="230" as="targetPoint" />
            <Array as="points">
              <mxPoint x="240" y="250" />
            </Array>
          </mxGeometry>
        </mxCell>
        <mxCell id="9PdDamgh7AAQmpJ13Fz--72" value="" style="endArrow=none;html=1;rounded=0;exitX=0;exitY=0.5;exitDx=0;exitDy=0;entryX=1;entryY=0.25;entryDx=0;entryDy=0;" edge="1" parent="1" source="9PdDamgh7AAQmpJ13Fz--65" target="9PdDamgh7AAQmpJ13Fz--43">
          <mxGeometry relative="1" as="geometry">
            <mxPoint x="110" y="180" as="sourcePoint" />
            <mxPoint x="270" y="180" as="targetPoint" />
            <Array as="points">
              <mxPoint x="140" y="250" />
            </Array>
          </mxGeometry>
        </mxCell>
        <mxCell id="9PdDamgh7AAQmpJ13Fz--73" value="" style="endArrow=none;html=1;rounded=0;exitX=0;exitY=0.75;exitDx=0;exitDy=0;entryX=1;entryY=0.5;entryDx=0;entryDy=0;" edge="1" parent="1" source="9PdDamgh7AAQmpJ13Fz--29" target="9PdDamgh7AAQmpJ13Fz--66">
          <mxGeometry relative="1" as="geometry">
            <mxPoint x="110" y="180" as="sourcePoint" />
            <mxPoint x="270" y="180" as="targetPoint" />
            <Array as="points">
              <mxPoint x="220" y="280" />
            </Array>
          </mxGeometry>
        </mxCell>
        <mxCell id="9PdDamgh7AAQmpJ13Fz--74" value="" style="endArrow=none;html=1;rounded=0;exitX=0;exitY=0.5;exitDx=0;exitDy=0;entryX=1;entryY=0.75;entryDx=0;entryDy=0;" edge="1" parent="1" source="9PdDamgh7AAQmpJ13Fz--66" target="9PdDamgh7AAQmpJ13Fz--43">
          <mxGeometry relative="1" as="geometry">
            <mxPoint x="110" y="180" as="sourcePoint" />
            <mxPoint x="270" y="180" as="targetPoint" />
            <Array as="points">
              <mxPoint x="150" y="280" />
            </Array>
          </mxGeometry>
        </mxCell>
        <mxCell id="9PdDamgh7AAQmpJ13Fz--95" style="edgeStyle=orthogonalEdgeStyle;rounded=0;orthogonalLoop=1;jettySize=auto;html=1;entryX=0.5;entryY=0;entryDx=0;entryDy=0;" edge="1" parent="1" source="9PdDamgh7AAQmpJ13Fz--80" target="9PdDamgh7AAQmpJ13Fz--43">
          <mxGeometry relative="1" as="geometry" />
        </mxCell>
        <mxCell id="9PdDamgh7AAQmpJ13Fz--80" value="属于" style="shape=rhombus;double=1;perimeter=rhombusPerimeter;whiteSpace=wrap;html=1;align=center;" vertex="1" parent="1">
          <mxGeometry x="45" y="70" width="70" height="60" as="geometry" />
        </mxCell>
        <mxCell id="9PdDamgh7AAQmpJ13Fz--81" value="" style="shape=link;html=1;rounded=0;exitX=1;exitY=0.5;exitDx=0;exitDy=0;entryX=0;entryY=0.5;entryDx=0;entryDy=0;" edge="1" parent="1" source="9PdDamgh7AAQmpJ13Fz--80" target="9PdDamgh7AAQmpJ13Fz--42">
          <mxGeometry relative="1" as="geometry">
            <mxPoint x="100" y="140" as="sourcePoint" />
            <mxPoint x="260" y="140" as="targetPoint" />
          </mxGeometry>
        </mxCell>
        <mxCell id="9PdDamgh7AAQmpJ13Fz--85" value="&lt;span style=&quot;border-bottom: 1px dotted&quot;&gt;题目编号&lt;/span&gt;" style="ellipse;whiteSpace=wrap;html=1;align=center;" vertex="1" parent="1">
          <mxGeometry x="335" y="40" width="55" height="30" as="geometry" />
        </mxCell>
        <mxCell id="9PdDamgh7AAQmpJ13Fz--86" value="团队id" style="ellipse;whiteSpace=wrap;html=1;align=center;" vertex="1" parent="1">
          <mxGeometry y="310" width="60" height="35" as="geometry" />
        </mxCell>
        <mxCell id="9PdDamgh7AAQmpJ13Fz--87" value="团队名" style="ellipse;whiteSpace=wrap;html=1;align=center;" vertex="1" parent="1">
          <mxGeometry x="80" y="310" width="60" height="40" as="geometry" />
        </mxCell>
        <mxCell id="9PdDamgh7AAQmpJ13Fz--88" value="" style="endArrow=none;html=1;rounded=0;entryX=0.5;entryY=0;entryDx=0;entryDy=0;" edge="1" parent="1" target="9PdDamgh7AAQmpJ13Fz--86">
          <mxGeometry relative="1" as="geometry">
            <mxPoint x="50" y="290" as="sourcePoint" />
            <mxPoint x="150" y="290" as="targetPoint" />
          </mxGeometry>
        </mxCell>
        <mxCell id="9PdDamgh7AAQmpJ13Fz--89" value="" style="endArrow=none;html=1;rounded=0;" edge="1" parent="1" target="9PdDamgh7AAQmpJ13Fz--87">
          <mxGeometry relative="1" as="geometry">
            <mxPoint x="110" y="290" as="sourcePoint" />
            <mxPoint x="150" y="290" as="targetPoint" />
          </mxGeometry>
        </mxCell>
        <mxCell id="9PdDamgh7AAQmpJ13Fz--91" value="讨论帖子" style="shape=ext;margin=3;double=1;whiteSpace=wrap;html=1;align=center;" vertex="1" parent="1">
          <mxGeometry x="490" y="80" width="100" height="40" as="geometry" />
        </mxCell>
        <mxCell id="9PdDamgh7AAQmpJ13Fz--94" style="edgeStyle=orthogonalEdgeStyle;rounded=0;orthogonalLoop=1;jettySize=auto;html=1;entryX=1;entryY=0.5;entryDx=0;entryDy=0;" edge="1" parent="1" source="9PdDamgh7AAQmpJ13Fz--92" target="9PdDamgh7AAQmpJ13Fz--42">
          <mxGeometry relative="1" as="geometry" />
        </mxCell>
        <mxCell id="9PdDamgh7AAQmpJ13Fz--92" value="属于" style="shape=rhombus;double=1;perimeter=rhombusPerimeter;whiteSpace=wrap;html=1;align=center;" vertex="1" parent="1">
          <mxGeometry x="400" y="70" width="70" height="60" as="geometry" />
        </mxCell>
        <mxCell id="9PdDamgh7AAQmpJ13Fz--96" value="" style="shape=link;html=1;rounded=0;exitX=1;exitY=0.5;exitDx=0;exitDy=0;entryX=0;entryY=0.5;entryDx=0;entryDy=0;" edge="1" parent="1" source="9PdDamgh7AAQmpJ13Fz--92" target="9PdDamgh7AAQmpJ13Fz--91">
          <mxGeometry relative="1" as="geometry">
            <mxPoint x="125" y="110" as="sourcePoint" />
            <mxPoint x="270" y="110" as="targetPoint" />
          </mxGeometry>
        </mxCell>
        <mxCell id="9PdDamgh7AAQmpJ13Fz--97" value="发表" style="shape=rhombus;perimeter=rhombusPerimeter;whiteSpace=wrap;html=1;align=center;" vertex="1" parent="1">
          <mxGeometry x="500" y="240" width="80" height="60" as="geometry" />
        </mxCell>
        <mxCell id="9PdDamgh7AAQmpJ13Fz--99" value="" style="endArrow=none;html=1;rounded=0;exitX=1;exitY=0.5;exitDx=0;exitDy=0;" edge="1" parent="1" source="9PdDamgh7AAQmpJ13Fz--29" target="9PdDamgh7AAQmpJ13Fz--97">
          <mxGeometry relative="1" as="geometry">
            <mxPoint x="375" y="270" as="sourcePoint" />
            <mxPoint x="595" y="260" as="targetPoint" />
            <Array as="points">
              <mxPoint x="425" y="270" />
            </Array>
          </mxGeometry>
        </mxCell>
        <mxCell id="9PdDamgh7AAQmpJ13Fz--102" value="" style="endArrow=none;html=1;rounded=0;exitX=0.5;exitY=0;exitDx=0;exitDy=0;entryX=0.5;entryY=1;entryDx=0;entryDy=0;" edge="1" parent="1" source="9PdDamgh7AAQmpJ13Fz--97" target="9PdDamgh7AAQmpJ13Fz--91">
          <mxGeometry relative="1" as="geometry">
            <mxPoint x="270" y="220" as="sourcePoint" />
            <mxPoint x="430" y="220" as="targetPoint" />
            <Array as="points">
              <mxPoint x="540" y="180" />
            </Array>
          </mxGeometry>
        </mxCell>
        <mxCell id="9PdDamgh7AAQmpJ13Fz--107" value="提交id" style="ellipse;whiteSpace=wrap;html=1;align=center;fontStyle=4" vertex="1" parent="1">
          <mxGeometry x="405" y="130" width="60" height="30" as="geometry" />
        </mxCell>
        <mxCell id="9PdDamgh7AAQmpJ13Fz--108" value="" style="endArrow=none;html=1;rounded=0;entryX=0;entryY=0.5;entryDx=0;entryDy=0;exitX=0.999;exitY=0.388;exitDx=0;exitDy=0;exitPerimeter=0;" edge="1" parent="1" source="9PdDamgh7AAQmpJ13Fz--106" target="9PdDamgh7AAQmpJ13Fz--107">
          <mxGeometry relative="1" as="geometry">
            <mxPoint x="270" y="220" as="sourcePoint" />
            <mxPoint x="430" y="220" as="targetPoint" />
          </mxGeometry>
        </mxCell>
        <mxCell id="9PdDamgh7AAQmpJ13Fz--109" value="提交代码" style="ellipse;whiteSpace=wrap;html=1;align=center;" vertex="1" parent="1">
          <mxGeometry x="405" y="165" width="60" height="30" as="geometry" />
        </mxCell>
        <mxCell id="9PdDamgh7AAQmpJ13Fz--110" value="" style="endArrow=none;html=1;rounded=0;exitX=1;exitY=0.5;exitDx=0;exitDy=0;entryX=0;entryY=0.5;entryDx=0;entryDy=0;" edge="1" parent="1" source="9PdDamgh7AAQmpJ13Fz--106" target="9PdDamgh7AAQmpJ13Fz--109">
          <mxGeometry relative="1" as="geometry">
            <mxPoint x="270" y="220" as="sourcePoint" />
            <mxPoint x="430" y="220" as="targetPoint" />
          </mxGeometry>
        </mxCell>
        <mxCell id="9PdDamgh7AAQmpJ13Fz--111" value="测评结果" style="ellipse;whiteSpace=wrap;html=1;align=center;" vertex="1" parent="1">
          <mxGeometry x="405" y="200" width="60" height="30" as="geometry" />
        </mxCell>
        <mxCell id="9PdDamgh7AAQmpJ13Fz--113" value="" style="endArrow=none;html=1;rounded=0;exitX=0.984;exitY=0.618;exitDx=0;exitDy=0;exitPerimeter=0;entryX=0;entryY=0.5;entryDx=0;entryDy=0;" edge="1" parent="1" source="9PdDamgh7AAQmpJ13Fz--106" target="9PdDamgh7AAQmpJ13Fz--111">
          <mxGeometry relative="1" as="geometry">
            <mxPoint x="270" y="220" as="sourcePoint" />
            <mxPoint x="430" y="220" as="targetPoint" />
          </mxGeometry>
        </mxCell>
        <mxCell id="9PdDamgh7AAQmpJ13Fz--114" value="评论" style="shape=ext;margin=3;double=1;whiteSpace=wrap;html=1;align=center;" vertex="1" parent="1">
          <mxGeometry x="700" y="80" width="100" height="40" as="geometry" />
        </mxCell>
        <mxCell id="9PdDamgh7AAQmpJ13Fz--116" value="" style="edgeStyle=orthogonalEdgeStyle;rounded=0;orthogonalLoop=1;jettySize=auto;html=1;" edge="1" parent="1" source="9PdDamgh7AAQmpJ13Fz--115" target="9PdDamgh7AAQmpJ13Fz--91">
          <mxGeometry relative="1" as="geometry">
            <Array as="points">
              <mxPoint x="600" y="100" />
              <mxPoint x="600" y="100" />
            </Array>
          </mxGeometry>
        </mxCell>
        <mxCell id="9PdDamgh7AAQmpJ13Fz--115" value="属于" style="shape=rhombus;double=1;perimeter=rhombusPerimeter;whiteSpace=wrap;html=1;align=center;" vertex="1" parent="1">
          <mxGeometry x="610" y="70" width="70" height="60" as="geometry" />
        </mxCell>
        <mxCell id="9PdDamgh7AAQmpJ13Fz--120" value="" style="shape=link;html=1;rounded=0;exitX=1;exitY=0.5;exitDx=0;exitDy=0;entryX=0;entryY=0.5;entryDx=0;entryDy=0;" edge="1" parent="1" source="9PdDamgh7AAQmpJ13Fz--115" target="9PdDamgh7AAQmpJ13Fz--114">
          <mxGeometry relative="1" as="geometry">
            <mxPoint x="500" y="150" as="sourcePoint" />
            <mxPoint x="660" y="150" as="targetPoint" />
          </mxGeometry>
        </mxCell>
        <mxCell id="9PdDamgh7AAQmpJ13Fz--122" value="发表" style="shape=rhombus;perimeter=rhombusPerimeter;whiteSpace=wrap;html=1;align=center;" vertex="1" parent="1">
          <mxGeometry x="710" y="240" width="80" height="60" as="geometry" />
        </mxCell>
        <mxCell id="9PdDamgh7AAQmpJ13Fz--123" value="" style="endArrow=none;html=1;rounded=0;exitX=0.5;exitY=0;exitDx=0;exitDy=0;entryX=0.5;entryY=1;entryDx=0;entryDy=0;" edge="1" parent="1" source="9PdDamgh7AAQmpJ13Fz--122" target="9PdDamgh7AAQmpJ13Fz--114">
          <mxGeometry relative="1" as="geometry">
            <mxPoint x="550" y="250" as="sourcePoint" />
            <mxPoint x="550" y="130" as="targetPoint" />
            <Array as="points" />
          </mxGeometry>
        </mxCell>
        <mxCell id="9PdDamgh7AAQmpJ13Fz--124" value="" style="endArrow=none;html=1;rounded=0;exitX=1;exitY=0.75;exitDx=0;exitDy=0;entryX=0;entryY=0.5;entryDx=0;entryDy=0;" edge="1" parent="1" source="9PdDamgh7AAQmpJ13Fz--29" target="9PdDamgh7AAQmpJ13Fz--122">
          <mxGeometry relative="1" as="geometry">
            <mxPoint x="420" y="280" as="sourcePoint" />
            <mxPoint x="580" y="280" as="targetPoint" />
            <Array as="points">
              <mxPoint x="430" y="320" />
              <mxPoint x="600" y="320" />
              <mxPoint x="600" y="270" />
            </Array>
          </mxGeometry>
        </mxCell>
        <mxCell id="9PdDamgh7AAQmpJ13Fz--125" value="讨论id" style="ellipse;whiteSpace=wrap;html=1;align=center;fontStyle=4;" vertex="1" parent="1">
          <mxGeometry x="410" y="30" width="70" height="35" as="geometry" />
        </mxCell>
        <mxCell id="9PdDamgh7AAQmpJ13Fz--126" value="" style="endArrow=none;html=1;rounded=0;exitX=0.5;exitY=1;exitDx=0;exitDy=0;entryX=0.175;entryY=0.034;entryDx=0;entryDy=0;entryPerimeter=0;" edge="1" parent="1" source="9PdDamgh7AAQmpJ13Fz--125" target="9PdDamgh7AAQmpJ13Fz--91">
          <mxGeometry relative="1" as="geometry">
            <mxPoint x="480" y="140" as="sourcePoint" />
            <mxPoint x="640" y="140" as="targetPoint" />
          </mxGeometry>
        </mxCell>
        <mxCell id="9PdDamgh7AAQmpJ13Fz--128" value="标题" style="ellipse;whiteSpace=wrap;html=1;align=center;fontStyle=0;" vertex="1" parent="1">
          <mxGeometry x="490" y="30" width="70" height="35" as="geometry" />
        </mxCell>
        <mxCell id="9PdDamgh7AAQmpJ13Fz--130" value="" style="endArrow=none;html=1;rounded=0;exitX=0.5;exitY=1;exitDx=0;exitDy=0;entryX=0.5;entryY=0;entryDx=0;entryDy=0;" edge="1" parent="1" source="9PdDamgh7AAQmpJ13Fz--128" target="9PdDamgh7AAQmpJ13Fz--91">
          <mxGeometry relative="1" as="geometry">
            <mxPoint x="480" y="140" as="sourcePoint" />
            <mxPoint x="640" y="140" as="targetPoint" />
          </mxGeometry>
        </mxCell>
        <mxCell id="9PdDamgh7AAQmpJ13Fz--133" value="内容" style="ellipse;whiteSpace=wrap;html=1;align=center;fontStyle=0;" vertex="1" parent="1">
          <mxGeometry x="570" y="30" width="70" height="35" as="geometry" />
        </mxCell>
        <mxCell id="9PdDamgh7AAQmpJ13Fz--134" value="" style="endArrow=none;html=1;rounded=0;exitX=0.5;exitY=1;exitDx=0;exitDy=0;entryX=0.75;entryY=0;entryDx=0;entryDy=0;" edge="1" parent="1" source="9PdDamgh7AAQmpJ13Fz--133" target="9PdDamgh7AAQmpJ13Fz--91">
          <mxGeometry relative="1" as="geometry">
            <mxPoint x="480" y="140" as="sourcePoint" />
            <mxPoint x="640" y="140" as="targetPoint" />
          </mxGeometry>
        </mxCell>
        <mxCell id="9PdDamgh7AAQmpJ13Fz--135" value="评论id" style="ellipse;whiteSpace=wrap;html=1;align=center;fontStyle=4;" vertex="1" parent="1">
          <mxGeometry x="650" y="30" width="70" height="35" as="geometry" />
        </mxCell>
        <mxCell id="9PdDamgh7AAQmpJ13Fz--137" value="内容" style="ellipse;whiteSpace=wrap;html=1;align=center;fontStyle=0;" vertex="1" parent="1">
          <mxGeometry x="730" y="30" width="70" height="35" as="geometry" />
        </mxCell>
        <mxCell id="9PdDamgh7AAQmpJ13Fz--138" value="" style="endArrow=none;html=1;rounded=0;exitX=0.5;exitY=1;exitDx=0;exitDy=0;entryX=0.25;entryY=0;entryDx=0;entryDy=0;" edge="1" parent="1" source="9PdDamgh7AAQmpJ13Fz--135" target="9PdDamgh7AAQmpJ13Fz--114">
          <mxGeometry relative="1" as="geometry">
            <mxPoint x="580" y="120" as="sourcePoint" />
            <mxPoint x="740" y="120" as="targetPoint" />
          </mxGeometry>
        </mxCell>
        <mxCell id="9PdDamgh7AAQmpJ13Fz--139" value="" style="endArrow=none;html=1;rounded=0;exitX=0.5;exitY=1;exitDx=0;exitDy=0;entryX=0.5;entryY=0;entryDx=0;entryDy=0;" edge="1" parent="1" source="9PdDamgh7AAQmpJ13Fz--137" target="9PdDamgh7AAQmpJ13Fz--114">
          <mxGeometry relative="1" as="geometry">
            <mxPoint x="580" y="120" as="sourcePoint" />
            <mxPoint x="740" y="120" as="targetPoint" />
          </mxGeometry>
        </mxCell>
        <mxCell id="9PdDamgh7AAQmpJ13Fz--141" style="edgeStyle=orthogonalEdgeStyle;rounded=0;orthogonalLoop=1;jettySize=auto;html=1;entryX=0.25;entryY=1;entryDx=0;entryDy=0;" edge="1" parent="1" source="9PdDamgh7AAQmpJ13Fz--140" target="9PdDamgh7AAQmpJ13Fz--114">
          <mxGeometry relative="1" as="geometry" />
        </mxCell>
        <mxCell id="9PdDamgh7AAQmpJ13Fz--140" value="引用" style="shape=rhombus;perimeter=rhombusPerimeter;whiteSpace=wrap;html=1;align=center;" vertex="1" parent="1">
          <mxGeometry x="610" y="140" width="70" height="60" as="geometry" />
        </mxCell>
        <mxCell id="9PdDamgh7AAQmpJ13Fz--142" style="edgeStyle=orthogonalEdgeStyle;rounded=0;orthogonalLoop=1;jettySize=auto;html=1;entryX=0.988;entryY=0.713;entryDx=0;entryDy=0;entryPerimeter=0;" edge="1" parent="1" source="9PdDamgh7AAQmpJ13Fz--140" target="9PdDamgh7AAQmpJ13Fz--106">
          <mxGeometry relative="1" as="geometry" />
        </mxCell>
        <mxCell id="9PdDamgh7AAQmpJ13Fz--144" value="比赛" style="shape=ext;margin=3;double=1;whiteSpace=wrap;html=1;align=center;" vertex="1" parent="1">
          <mxGeometry x="20" y="440" width="100" height="40" as="geometry" />
        </mxCell>
        <mxCell id="9PdDamgh7AAQmpJ13Fz--145" value="属于" style="shape=rhombus;double=1;perimeter=rhombusPerimeter;whiteSpace=wrap;html=1;align=center;" vertex="1" parent="1">
          <mxGeometry x="30" y="360" width="80" height="60" as="geometry" />
        </mxCell>
        <mxCell id="9PdDamgh7AAQmpJ13Fz--146" style="edgeStyle=orthogonalEdgeStyle;rounded=0;orthogonalLoop=1;jettySize=auto;html=1;entryX=0.392;entryY=1.016;entryDx=0;entryDy=0;entryPerimeter=0;" edge="1" parent="1" source="9PdDamgh7AAQmpJ13Fz--145" target="9PdDamgh7AAQmpJ13Fz--43">
          <mxGeometry relative="1" as="geometry" />
        </mxCell>
        <mxCell id="9PdDamgh7AAQmpJ13Fz--147" value="" style="shape=link;html=1;rounded=0;exitX=0.5;exitY=1;exitDx=0;exitDy=0;entryX=0.5;entryY=0;entryDx=0;entryDy=0;" edge="1" parent="1" source="9PdDamgh7AAQmpJ13Fz--145" target="9PdDamgh7AAQmpJ13Fz--144">
          <mxGeometry relative="1" as="geometry">
            <mxPoint x="120" y="410" as="sourcePoint" />
            <mxPoint x="280" y="410" as="targetPoint" />
          </mxGeometry>
        </mxCell>
        <mxCell id="9PdDamgh7AAQmpJ13Fz--150" value="比赛id" style="ellipse;whiteSpace=wrap;html=1;align=center;fontStyle=4;" vertex="1" parent="1">
          <mxGeometry y="500" width="60" height="40" as="geometry" />
        </mxCell>
        <mxCell id="9PdDamgh7AAQmpJ13Fz--152" value="" style="endArrow=none;html=1;rounded=0;exitX=0.5;exitY=0;exitDx=0;exitDy=0;entryX=0.25;entryY=1;entryDx=0;entryDy=0;" edge="1" parent="1" source="9PdDamgh7AAQmpJ13Fz--150" target="9PdDamgh7AAQmpJ13Fz--144">
          <mxGeometry relative="1" as="geometry">
            <mxPoint x="100" y="490" as="sourcePoint" />
            <mxPoint x="260" y="490" as="targetPoint" />
          </mxGeometry>
        </mxCell>
        <mxCell id="9PdDamgh7AAQmpJ13Fz--154" value="创建" style="shape=rhombus;perimeter=rhombusPerimeter;whiteSpace=wrap;html=1;align=center;" vertex="1" parent="1">
          <mxGeometry x="130" y="360" width="80" height="60" as="geometry" />
        </mxCell>
        <mxCell id="9PdDamgh7AAQmpJ13Fz--155" value="参与" style="shape=rhombus;perimeter=rhombusPerimeter;whiteSpace=wrap;html=1;align=center;" vertex="1" parent="1">
          <mxGeometry x="220" y="360" width="80" height="60" as="geometry" />
        </mxCell>
        <mxCell id="9PdDamgh7AAQmpJ13Fz--156" value="" style="endArrow=none;html=1;rounded=0;exitX=0.75;exitY=0;exitDx=0;exitDy=0;entryX=0;entryY=0.5;entryDx=0;entryDy=0;" edge="1" parent="1" source="9PdDamgh7AAQmpJ13Fz--144" target="9PdDamgh7AAQmpJ13Fz--154">
          <mxGeometry relative="1" as="geometry">
            <mxPoint x="180" y="320" as="sourcePoint" />
            <mxPoint x="340" y="320" as="targetPoint" />
            <Array as="points">
              <mxPoint x="95" y="420" />
            </Array>
          </mxGeometry>
        </mxCell>
        <mxCell id="9PdDamgh7AAQmpJ13Fz--157" value="" style="endArrow=none;html=1;rounded=0;exitX=1;exitY=0;exitDx=0;exitDy=0;entryX=0;entryY=0.5;entryDx=0;entryDy=0;" edge="1" parent="1" source="9PdDamgh7AAQmpJ13Fz--144" target="9PdDamgh7AAQmpJ13Fz--155">
          <mxGeometry relative="1" as="geometry">
            <mxPoint x="180" y="320" as="sourcePoint" />
            <mxPoint x="340" y="320" as="targetPoint" />
            <Array as="points">
              <mxPoint x="220" y="440" />
            </Array>
          </mxGeometry>
        </mxCell>
        <mxCell id="9PdDamgh7AAQmpJ13Fz--158" value="" style="endArrow=none;html=1;rounded=0;exitX=0.5;exitY=0;exitDx=0;exitDy=0;entryX=0;entryY=0.5;entryDx=0;entryDy=0;" edge="1" parent="1" source="9PdDamgh7AAQmpJ13Fz--154" target="9PdDamgh7AAQmpJ13Fz--29">
          <mxGeometry relative="1" as="geometry">
            <mxPoint x="180" y="320" as="sourcePoint" />
            <mxPoint x="340" y="320" as="targetPoint" />
            <Array as="points">
              <mxPoint x="210" y="360" />
            </Array>
          </mxGeometry>
        </mxCell>
        <mxCell id="9PdDamgh7AAQmpJ13Fz--159" value="" style="endArrow=none;html=1;rounded=0;exitX=0.5;exitY=0;exitDx=0;exitDy=0;entryX=0.25;entryY=1;entryDx=0;entryDy=0;" edge="1" parent="1" source="9PdDamgh7AAQmpJ13Fz--155" target="9PdDamgh7AAQmpJ13Fz--29">
          <mxGeometry relative="1" as="geometry">
            <mxPoint x="250" y="310" as="sourcePoint" />
            <mxPoint x="410" y="310" as="targetPoint" />
            <Array as="points">
              <mxPoint x="260" y="350" />
            </Array>
          </mxGeometry>
        </mxCell>
        <mxCell id="9PdDamgh7AAQmpJ13Fz--160" value="包含" style="shape=rhombus;perimeter=rhombusPerimeter;whiteSpace=wrap;html=1;align=center;" vertex="1" parent="1">
          <mxGeometry x="310" y="360" width="70" height="60" as="geometry" />
        </mxCell>
        <mxCell id="9PdDamgh7AAQmpJ13Fz--161" value="" style="endArrow=none;html=1;rounded=0;exitX=0.75;exitY=1;exitDx=0;exitDy=0;entryX=0.5;entryY=0;entryDx=0;entryDy=0;" edge="1" parent="1" source="9PdDamgh7AAQmpJ13Fz--42" target="9PdDamgh7AAQmpJ13Fz--160">
          <mxGeometry relative="1" as="geometry">
            <mxPoint x="380" y="430" as="sourcePoint" />
            <mxPoint x="540" y="430" as="targetPoint" />
            <Array as="points">
              <mxPoint x="345" y="140" />
            </Array>
          </mxGeometry>
        </mxCell>
        <mxCell id="9PdDamgh7AAQmpJ13Fz--162" value="" style="endArrow=none;html=1;rounded=0;exitX=1;exitY=0.5;exitDx=0;exitDy=0;entryX=0.5;entryY=1;entryDx=0;entryDy=0;" edge="1" parent="1" source="9PdDamgh7AAQmpJ13Fz--144" target="9PdDamgh7AAQmpJ13Fz--160">
          <mxGeometry relative="1" as="geometry">
            <mxPoint x="310" y="280" as="sourcePoint" />
            <mxPoint x="470" y="280" as="targetPoint" />
            <Array as="points">
              <mxPoint x="340" y="460" />
            </Array>
          </mxGeometry>
        </mxCell>
        <mxCell id="9PdDamgh7AAQmpJ13Fz--163" value="起始时间" style="ellipse;whiteSpace=wrap;html=1;align=center;fontStyle=0;" vertex="1" parent="1">
          <mxGeometry x="60" y="500" width="60" height="40" as="geometry" />
        </mxCell>
        <mxCell id="9PdDamgh7AAQmpJ13Fz--164" value="终止时间" style="ellipse;whiteSpace=wrap;html=1;align=center;fontStyle=0;" vertex="1" parent="1">
          <mxGeometry x="120" y="500" width="60" height="40" as="geometry" />
        </mxCell>
        <mxCell id="9PdDamgh7AAQmpJ13Fz--166" value="" style="endArrow=none;html=1;rounded=0;exitX=0.5;exitY=1;exitDx=0;exitDy=0;entryX=0.5;entryY=0;entryDx=0;entryDy=0;" edge="1" parent="1" source="9PdDamgh7AAQmpJ13Fz--144" target="9PdDamgh7AAQmpJ13Fz--163">
          <mxGeometry relative="1" as="geometry">
            <mxPoint x="120" y="600" as="sourcePoint" />
            <mxPoint x="280" y="600" as="targetPoint" />
          </mxGeometry>
        </mxCell>
        <mxCell id="9PdDamgh7AAQmpJ13Fz--167" value="" style="endArrow=none;html=1;rounded=0;exitX=0.75;exitY=1;exitDx=0;exitDy=0;entryX=0.5;entryY=0;entryDx=0;entryDy=0;" edge="1" parent="1" source="9PdDamgh7AAQmpJ13Fz--144" target="9PdDamgh7AAQmpJ13Fz--164">
          <mxGeometry relative="1" as="geometry">
            <mxPoint x="100" y="640" as="sourcePoint" />
            <mxPoint x="260" y="640" as="targetPoint" />
          </mxGeometry>
        </mxCell>
        <mxCell id="9PdDamgh7AAQmpJ13Fz--172" value="通过状态" style="shape=rhombus;perimeter=rhombusPerimeter;whiteSpace=wrap;html=1;align=center;" vertex="1" parent="1">
          <mxGeometry x="400" y="360" width="65" height="60" as="geometry" />
        </mxCell>
        <mxCell id="9PdDamgh7AAQmpJ13Fz--173" value="" style="endArrow=none;html=1;rounded=0;exitX=1;exitY=0.75;exitDx=0;exitDy=0;entryX=0.5;entryY=1;entryDx=0;entryDy=0;" edge="1" parent="1" source="9PdDamgh7AAQmpJ13Fz--144" target="9PdDamgh7AAQmpJ13Fz--172">
          <mxGeometry relative="1" as="geometry">
            <mxPoint x="305" y="470" as="sourcePoint" />
            <mxPoint x="465" y="470" as="targetPoint" />
            <Array as="points">
              <mxPoint x="433" y="470" />
            </Array>
          </mxGeometry>
        </mxCell>
        <mxCell id="9PdDamgh7AAQmpJ13Fz--174" value="" style="endArrow=none;html=1;rounded=0;exitX=1;exitY=0.5;exitDx=0;exitDy=0;entryX=0.308;entryY=0.167;entryDx=0;entryDy=0;entryPerimeter=0;" edge="1" parent="1" source="9PdDamgh7AAQmpJ13Fz--29" target="9PdDamgh7AAQmpJ13Fz--172">
          <mxGeometry relative="1" as="geometry">
            <mxPoint x="500" y="419.13" as="sourcePoint" />
            <mxPoint x="660" y="419.13" as="targetPoint" />
            <Array as="points">
              <mxPoint x="370" y="370" />
            </Array>
          </mxGeometry>
        </mxCell>
        <mxCell id="9PdDamgh7AAQmpJ13Fz--175" value="" style="endArrow=none;html=1;rounded=0;exitX=1;exitY=1;exitDx=0;exitDy=0;entryX=0.5;entryY=0;entryDx=0;entryDy=0;" edge="1" parent="1" source="9PdDamgh7AAQmpJ13Fz--42" target="9PdDamgh7AAQmpJ13Fz--172">
          <mxGeometry relative="1" as="geometry">
            <mxPoint x="540" y="440" as="sourcePoint" />
            <mxPoint x="700" y="440" as="targetPoint" />
            <Array as="points">
              <mxPoint x="380" y="120" />
            </Array>
          </mxGeometry>
        </mxCell>
        <mxCell id="9PdDamgh7AAQmpJ13Fz--177" value="is_solved" style="ellipse;whiteSpace=wrap;html=1;align=center;" vertex="1" parent="1">
          <mxGeometry x="465" y="330" width="60" height="40" as="geometry" />
        </mxCell>
        <mxCell id="9PdDamgh7AAQmpJ13Fz--179" value="" style="endArrow=none;html=1;rounded=0;exitX=1;exitY=0;exitDx=0;exitDy=0;entryX=0;entryY=0.5;entryDx=0;entryDy=0;" edge="1" parent="1" source="9PdDamgh7AAQmpJ13Fz--172" target="9PdDamgh7AAQmpJ13Fz--177">
          <mxGeometry relative="1" as="geometry">
            <mxPoint x="310" y="390" as="sourcePoint" />
            <mxPoint x="470" y="390" as="targetPoint" />
          </mxGeometry>
        </mxCell>
        <mxCell id="9PdDamgh7AAQmpJ13Fz--181" value="通过时间" style="ellipse;whiteSpace=wrap;html=1;align=center;" vertex="1" parent="1">
          <mxGeometry x="465" y="400" width="60" height="40" as="geometry" />
        </mxCell>
        <mxCell id="9PdDamgh7AAQmpJ13Fz--182" value="" style="endArrow=none;html=1;rounded=0;exitX=1;exitY=1;exitDx=0;exitDy=0;entryX=0;entryY=0.5;entryDx=0;entryDy=0;" edge="1" parent="1" source="9PdDamgh7AAQmpJ13Fz--172" target="9PdDamgh7AAQmpJ13Fz--181">
          <mxGeometry relative="1" as="geometry">
            <mxPoint x="310" y="390" as="sourcePoint" />
            <mxPoint x="470" y="390" as="targetPoint" />
          </mxGeometry>
        </mxCell>
        <mxCell id="9PdDamgh7AAQmpJ13Fz--185" value="排行榜" style="shape=ext;margin=3;double=1;whiteSpace=wrap;html=1;align=center;" vertex="1" parent="1">
          <mxGeometry x="260" y="570" width="100" height="40" as="geometry" />
        </mxCell>
        <mxCell id="9PdDamgh7AAQmpJ13Fz--187" style="edgeStyle=orthogonalEdgeStyle;rounded=0;orthogonalLoop=1;jettySize=auto;html=1;" edge="1" parent="1" source="9PdDamgh7AAQmpJ13Fz--186">
          <mxGeometry relative="1" as="geometry">
            <mxPoint x="70" y="480" as="targetPoint" />
          </mxGeometry>
        </mxCell>
        <mxCell id="9PdDamgh7AAQmpJ13Fz--186" value="属于" style="shape=rhombus;double=1;perimeter=rhombusPerimeter;whiteSpace=wrap;html=1;align=center;" vertex="1" parent="1">
          <mxGeometry x="30" y="560" width="80" height="60" as="geometry" />
        </mxCell>
        <mxCell id="9PdDamgh7AAQmpJ13Fz--188" value="" style="shape=link;html=1;rounded=0;exitX=1;exitY=0.5;exitDx=0;exitDy=0;entryX=0;entryY=0.5;entryDx=0;entryDy=0;" edge="1" parent="1" source="9PdDamgh7AAQmpJ13Fz--186" target="9PdDamgh7AAQmpJ13Fz--185">
          <mxGeometry relative="1" as="geometry">
            <mxPoint x="130" y="629.9999999999999" as="sourcePoint" />
            <mxPoint x="290" y="629.9999999999999" as="targetPoint" />
          </mxGeometry>
        </mxCell>
        <mxCell id="9PdDamgh7AAQmpJ13Fz--190" value="构成" style="shape=rhombus;perimeter=rhombusPerimeter;whiteSpace=wrap;html=1;align=center;" vertex="1" parent="1">
          <mxGeometry x="360" y="490" width="85" height="60" as="geometry" />
        </mxCell>
        <mxCell id="9PdDamgh7AAQmpJ13Fz--191" value="" style="endArrow=none;html=1;rounded=0;exitX=0;exitY=0.5;exitDx=0;exitDy=0;entryX=0.5;entryY=0;entryDx=0;entryDy=0;" edge="1" parent="1" source="9PdDamgh7AAQmpJ13Fz--172" target="9PdDamgh7AAQmpJ13Fz--190">
          <mxGeometry relative="1" as="geometry">
            <mxPoint x="250" y="510" as="sourcePoint" />
            <mxPoint x="410" y="510" as="targetPoint" />
          </mxGeometry>
        </mxCell>
        <mxCell id="9PdDamgh7AAQmpJ13Fz--192" value="" style="endArrow=none;html=1;rounded=0;entryX=0;entryY=0.5;entryDx=0;entryDy=0;exitX=0.5;exitY=0;exitDx=0;exitDy=0;" edge="1" parent="1" source="9PdDamgh7AAQmpJ13Fz--185" target="9PdDamgh7AAQmpJ13Fz--190">
          <mxGeometry relative="1" as="geometry">
            <mxPoint x="190" y="519.57" as="sourcePoint" />
            <mxPoint x="350" y="519.57" as="targetPoint" />
            <Array as="points">
              <mxPoint x="310" y="520" />
            </Array>
          </mxGeometry>
        </mxCell>
        <mxCell id="9PdDamgh7AAQmpJ13Fz--193" value="总解出题目数" style="ellipse;whiteSpace=wrap;html=1;align=center;" vertex="1" parent="1">
          <mxGeometry x="250" y="640" width="60" height="30" as="geometry" />
        </mxCell>
        <mxCell id="9PdDamgh7AAQmpJ13Fz--194" value="" style="endArrow=none;html=1;rounded=0;exitX=0.5;exitY=0;exitDx=0;exitDy=0;entryX=0.25;entryY=1;entryDx=0;entryDy=0;" edge="1" parent="1" source="9PdDamgh7AAQmpJ13Fz--193" target="9PdDamgh7AAQmpJ13Fz--185">
          <mxGeometry relative="1" as="geometry">
            <mxPoint x="220" y="530" as="sourcePoint" />
            <mxPoint x="380" y="530" as="targetPoint" />
          </mxGeometry>
        </mxCell>
        <mxCell id="9PdDamgh7AAQmpJ13Fz--195" value="总用时" style="ellipse;whiteSpace=wrap;html=1;align=center;" vertex="1" parent="1">
          <mxGeometry x="320" y="640" width="60" height="30" as="geometry" />
        </mxCell>
        <mxCell id="9PdDamgh7AAQmpJ13Fz--196" value="" style="endArrow=none;html=1;rounded=0;exitX=0.75;exitY=1;exitDx=0;exitDy=0;entryX=0.5;entryY=0;entryDx=0;entryDy=0;" edge="1" parent="1" source="9PdDamgh7AAQmpJ13Fz--185" target="9PdDamgh7AAQmpJ13Fz--195">
          <mxGeometry relative="1" as="geometry">
            <mxPoint x="220" y="530" as="sourcePoint" />
            <mxPoint x="380" y="530" as="targetPoint" />
          </mxGeometry>
        </mxCell>
      </root>
    </mxGraphModel>
  </diagram>
</mxfile>
